<?xml version="1.0" encoding="UTF-8"?>
<!-- Generated by Pixelmator Pro 3.6.7 -->
<svg width="1000" height="1000" viewBox="0 0 1000 1000" xmlns="http://www.w3.org/2000/svg">
    <path id="php-elephant" fill="#fcb827" fill-rule="evenodd" stroke="none" opacity="0.354887" visibility="hidden" d="M 185.918304 536.134644 L 185.918304 685 C 89.816727 684.941895 9.567623 611.713074 0.736468 516.018127 C -8.094687 420.32312 57.397465 333.644714 151.865372 316 L 185.918304 350.052979 L 278.959167 350.052979 C 330.271606 350.052856 371.897369 391.595398 372 442.907715 L 372 610.753418 C 371.89743 651.788757 338.602783 685.000122 297.567322 685 L 297.567322 647.783691 C 318.121368 647.783691 334.783661 631.121338 334.783661 610.567322 C 334.783661 590.013306 318.121368 573.350952 297.567322 573.350952 L 223.134659 573.350952 L 185.918304 536.134644 Z M 288.263245 480.31012 C 303.678741 480.31012 316.175507 467.813416 316.175507 452.397888 C 316.175507 436.982361 303.678741 424.485657 288.263245 424.485657 C 272.847717 424.485657 260.350983 436.982361 260.350983 452.397888 C 260.350983 467.813416 272.847717 480.31012 288.263245 480.31012 Z"/>
    <radialGradient id="radialGradient1" cx="-22.847183" cy="827.71829" r="926.472856" fx="-22.847183" fy="827.71829" gradientUnits="userSpaceOnUse">
        <stop offset="0" stop-color="#da9f4f" stop-opacity="1"/>
        <stop offset="1" stop-color="#f9cb9c" stop-opacity="1"/>
    </radialGradient>
    <path id="php-elephant-copy" fill="url(#radialGradient1)" fill-rule="evenodd" stroke="none" d="M 500.056702 527.114258 L 500.056702 995.978821 C 241.764679 995.821289 25.832796 798.102661 2.097295 538.739014 C -21.638235 279.375305 148.230896 55.301819 384.990356 4.000977 C 386.485687 3.676819 390.695313 42.848572 430.620117 79.561768 C 462.523163 108.898438 500.056702 110.561096 500.056702 110.561096 L 750.02832 110.561096 C 887.940735 110.56073 999.724182 223.35791 1000 362.430481 L 1000 794.483337 C 999.724182 905.702087 888.093933 995.979248 777.802856 995.978821 L 777.802856 906.855835 C 833.045898 906.855835 911.834961 862.133545 910.724304 786.733521 C 909.879028 729.353638 851.933899 696.081055 805.577515 689.860657 C 748.560608 682.209717 690.447388 691.440918 611.15509 647.236572 C 525.180481 599.306885 500.056702 527.114258 500.056702 527.114258 Z M 775.819031 443.80365 C 818.129395 443.692505 849.22345 410.023743 849.22345 368.242798 C 849.22345 326.461914 817.251099 292.682007 775.819031 292.682007 C 734.386658 292.682007 700.430786 326.461914 700.430786 368.242798 C 700.430786 410.023743 734.386658 443.80365 775.819031 443.80365 Z"/>
</svg>
